<svg xmlns="http://www.w3.org/2000/svg" viewBox="0 0 64 64" width="64" height="64">
  <defs>
    <filter id="glow-cursor" x="-20%" y="-20%" width="140%" height="140%">
      <feDropShadow dx="0" dy="2" stdDeviation="3" flood-color="#60A5FA" flood-opacity="0.3"/>
    </filter>
  </defs>
  <!-- Outer Circular Base -->
  <circle cx="32" cy="32" r="30" fill="#0B0F17" stroke="#60A5FA" stroke-width="1.5" stroke-opacity="0.75" filter="url(#glow-cursor)"/>
  <!-- Concentric Track Ring -->
  <circle cx="32" cy="32" r="26.5" fill="none" stroke="#60A5FA" stroke-width="0.75" stroke-opacity="0.25" stroke-dasharray="2 2"/>
  <!-- Centered Scaled Icon Glyph -->
  <g transform="translate(17, 17) scale(1.25)">
    <path fill="#F8FAFC" d="M22.106 5.68L12.5.135a.998.998 0 00-.998 0L1.893 5.68a.84.84 0 00-.419.726v11.186c0 .3.16.577.42.727l9.607 5.547a.999.999 0 00.998 0l9.608-5.547a.84.84 0 00.42-.727V6.407a.84.84 0 00-.42-.726zm-.603 1.176L12.228 22.92c-.063.108-.228.064-.228-.061V12.34a.59.59 0 00-.295-.51l-9.11-5.26c-.107-.062-.063-.228.062-.228h18.55c.264 0 .428.286.296.514z"/>
  </g>
</svg>
